<svg width="658" height="503" viewBox="0 0 658 503" fill="none" xmlns="http://www.w3.org/2000/svg">
<path d="M426.431 241.5C435.829 256.574 439.594 265.038 452.752 284.774" stroke="black" stroke-width="5" stroke-linecap="round"/>
<path d="M455.419 221C464.818 236.074 469.669 243.458 482.827 263.194" stroke="black" stroke-width="5" stroke-linecap="round"/>
<path d="M654.82 374.06C643.855 349.937 614.406 299.436 584.331 290.414C546.737 279.135 513.842 262.218 503.504 272.557" stroke="black" stroke-width="5" stroke-linecap="round"/>
<path d="M635.083 500C603.128 489.975 534.331 457.895 514.782 409.774" stroke="black" stroke-width="5" stroke-linecap="round"/>
<path d="M500.684 429.511C503.191 442.356 514.218 463.722 538.278 446.429" stroke="black" stroke-width="5" stroke-linecap="round"/>
<path d="M460.271 312.03C453.065 341.479 449.368 392.105 492.225 359.023" stroke="black" stroke-width="5" stroke-linecap="round"/>
<path d="M578.692 354.323C573.992 359.336 560.647 365.225 544.857 348.684C525.12 328.007 503.504 247.18 464.03 267.857C424.556 288.534 506.323 360.902 509.143 385.338C511.962 409.774 514.782 422.932 500.684 429.511C486.586 436.09 473.429 425.752 476.248 372.18" stroke="black" stroke-width="5" stroke-linecap="round"/>
<path d="M231.203 185.15C231.203 191.898 236.673 197.368 243.421 197.368C246.886 197.368 250.014 195.926 252.237 193.609L243.421 172.932C236.673 172.932 231.203 178.402 231.203 185.15Z" fill="black"/>
<path d="M278.195 239.662C278.195 246.41 283.666 251.88 290.413 251.88C296.522 251.88 301.584 247.397 302.488 241.542L283.834 229.365C280.443 231.536 278.195 235.336 278.195 239.662Z" fill="black"/>
<circle cx="361.587" cy="130.639" r="103.703" stroke="black" stroke-width="5"/>
<circle cx="361.587" cy="130.639" r="128.139" stroke="black" stroke-width="5"/>
<path d="M341.919 259C337.787 270.517 334.056 277.774 329.011 284.823C328.268 285.86 328.479 287.299 329.473 288.099C344.004 299.783 363.706 329.297 338.297 365.188C312.024 402.299 264.474 382.301 244.509 366.941C244.169 366.679 243.924 366.331 243.779 365.926L184.79 201.281C184.666 200.935 184.626 200.568 184.679 200.204C188.282 175.217 203.737 144.409 232.419 132.499" stroke="black" stroke-width="7" stroke-linecap="round"/>
<path d="M389.969 225.802C395.78 181.824 382.784 132.606 322.046 103.911C304.312 95.5322 288.031 91.5588 273.254 90.986" stroke="black" stroke-width="7" stroke-linecap="round"/>
<path d="M57.2582 221.029C21.0931 297.576 89.935 343.693 127.83 354.012C129.061 354.347 129.784 355.587 129.524 356.836C125.719 375.089 129.242 410.399 171.662 421.989C215.525 433.972 239.556 388.328 245.225 363.784C245.321 363.365 245.29 362.941 245.145 362.536L186.156 197.891C186.032 197.545 185.832 197.238 185.56 196.991C155.54 169.645 89.7363 152.285 57.2582 221.029Z" stroke="black" stroke-width="7" stroke-linecap="round"/>
<path d="M187.864 172.918C179.582 156.762 171.06 112.09 203.233 62.65" stroke="black" stroke-width="7" stroke-linecap="round"/>
<path d="M175.562 183.406C171.701 165.666 149.916 125.747 93.6661 107.986" stroke="black" stroke-width="7" stroke-linecap="round"/>
<circle cx="123.12" cy="217.105" r="12.218" fill="black"/>
<circle cx="93.0447" cy="262.218" r="12.218" fill="black"/>
<circle cx="143.797" cy="265.977" r="12.218" fill="black"/>
<circle cx="177.631" cy="375" r="12.218" fill="black"/>
<circle cx="196.428" cy="333.647" r="12.218" fill="black"/>
<circle cx="151.315" cy="322.368" r="12.218" fill="black"/>
<circle cx="237.782" cy="230.263" r="12.218" fill="black"/>
<circle cx="290.413" cy="348.684" r="12.218" fill="black"/>
<circle cx="320.488" cy="312.97" r="12.218" fill="black"/>
<circle cx="356.203" cy="185.15" r="15.9774" fill="black"/>
<circle cx="305.451" cy="147.556" r="15.9774" fill="black"/>
<circle cx="273.496" cy="288.534" r="12.218" fill="black"/>
</svg>
